<?xml version="1.0" standalone="no"?>
<!DOCTYPE svg PUBLIC "-//W3C//DTD SVG 20010904//EN"
 "http://www.w3.org/TR/2001/REC-SVG-20010904/DTD/svg10.dtd">
<svg version="1.0" xmlns="http://www.w3.org/2000/svg"
 width="700.000000pt" height="700.000000pt" viewBox="0 0 700.000000 700.000000"
 preserveAspectRatio="xMidYMid meet">
<metadata>
Created by potrace 1.14, written by Peter Selinger 2001-2017
</metadata>
<g transform="translate(0.000000,700.000000) scale(0.100000,-0.100000)"
fill="#000000" stroke="none">
<path d="M3443 6849 c-22 -4 -61 -17 -85 -28 -71 -34 -2250 -1494 -2271 -1522
-44 -61 -36 -136 21 -186 25 -22 157 -111 892 -605 168 -112 449 -301 625
-420 622 -418 720 -482 760 -497 61 -22 199 -20 255 6 36 16 275 172 753 493
12 8 353 234 757 503 404 269 746 499 758 511 13 11 30 33 38 48 28 53 13 119
-38 164 -12 12 -180 127 -373 256 -192 129 -453 304 -580 389 -126 85 -231
157 -233 162 -2 4 -8 7 -13 7 -5 0 -37 19 -72 43 -299 208 -960 644 -997 658
-55 21 -138 28 -197 18z"/>
<path d="M734 4792 c-50 -40 -48 21 -48 -1412 -1 -740 2 -1372 7 -1404 14
-115 110 -266 204 -322 18 -10 119 -77 225 -149 106 -71 201 -134 210 -140 15
-9 950 -631 1018 -678 71 -48 167 -113 182 -122 9 -5 70 -46 135 -90 65 -44
126 -84 135 -90 9 -5 77 -50 150 -100 166 -112 170 -114 220 -117 36 -2 45 2
69 32 19 22 29 46 30 70 1 19 2 634 3 1365 2 1428 3 1388 -50 1499 -55 117
-48 112 -1239 905 -616 411 -1133 752 -1148 759 -39 17 -78 15 -103 -6z"/>
<path d="M6157 4773 c-14 -7 -524 -346 -1134 -752 -737 -491 -1123 -754 -1150
-784 -48 -52 -98 -145 -116 -215 -9 -37 -12 -366 -11 -1403 0 -1255 1 -1356
17 -1386 20 -38 44 -53 87 -53 32 0 103 31 115 51 4 6 15 13 24 17 9 4 495
326 1081 717 670 447 1083 727 1112 758 48 48 108 160 123 227 11 46 13 2681
3 2740 -5 26 -18 55 -32 68 -28 28 -82 35 -119 15z"/>
</g>
</svg>
