<svg xmlns="http://www.w3.org/2000/svg" width="64" height="64" fill="none"><g clip-path="url(#a)"><circle cx="32" cy="32" r="32" fill="#E1E1E1"/><mask id="b" width="64" height="64" x="0" y="0" maskUnits="userSpaceOnUse" style="mask-type:alpha"><circle cx="32" cy="32" r="32" fill="#D9D9D9"/></mask><g mask="url(#b)"><path fill="#CB263B" fill-rule="evenodd" d="M62-6H31v8h31v-8ZM32 9h31v8H32V9Zm33 15H32v8h33v-8ZM-3 47v-8h70v8H-3Zm3 18V54h64v11H0Z" clip-rule="evenodd"/><path fill="#3D3C8F" d="M0-1h32v33H0z"/><path fill="#fff" fill-rule="evenodd" d="m27 0 .674 2.073h2.18L28.09 3.354l.673 2.073L27 4.146l-1.763 1.281.673-2.073-1.763-1.281h2.18L27 0ZM11 8l.674 2.073h2.18l-1.764 1.281.673 2.073L11 12.146l-1.763 1.281.673-2.073-1.763-1.281h2.18L11 8Zm8.674 2.073L19 8l-.674 2.073h-2.18l1.764 1.281-.673 2.073L19 12.146l1.763 1.281-.673-2.073 1.763-1.281h-2.18ZM19 16l.674 2.073h2.18l-1.764 1.281.673 2.073L19 20.146l-1.763 1.281.673-2.073-1.763-1.281h2.18L19 16Zm0 8 .674 2.073h2.18l-1.764 1.281.673 2.073L19 28.146l-1.763 1.281.673-2.073-1.763-1.281h2.18L19 24Zm8.674 2.073L27 24l-.674 2.073h-2.18l1.764 1.281-.673 2.073L27 28.146l1.763 1.281-.673-2.073 1.763-1.281h-2.18ZM27 16l.674 2.073h2.18l-1.764 1.281.673 2.073L27 20.146l-1.763 1.281.673-2.073-1.763-1.281h2.18L27 16Zm.674-5.927L27 8l-.674 2.073h-2.18l1.764 1.281-.673 2.073L27 12.146l1.763 1.281-.673-2.073 1.763-1.281h-2.18Zm-8-8L19 0l-.674 2.073h-2.18l1.764 1.281-.673 2.073L19 4.146l1.763 1.281-.673-2.073 1.763-1.281h-2.18ZM11 24l.674 2.073h2.18l-1.764 1.281.673 2.073L11 28.146l-1.763 1.281.673-2.073-1.763-1.281h2.18L11 24Zm.674-5.927L11 16l-.674 2.073h-2.18l1.764 1.281-.673 2.073L11 20.146l1.763 1.281-.673-2.073 1.763-1.281h-2.18ZM3 24l.674 2.073h2.18L4.09 27.354l.673 2.073L3 28.146l-1.763 1.281.673-2.073-1.763-1.281h2.18L3 24Zm.674-5.927L3 16l-.674 2.073H.146l1.764 1.281-.673 2.073L3 20.146l1.763 1.281-.673-2.073 1.763-1.281h-2.18Z" clip-rule="evenodd"/></g></g><defs><clipPath id="a"><path fill="#fff" d="M0 0h64v64H0z"/></clipPath></defs></svg>