<svg width="500" height="500" fill="none" xmlns="http://www.w3.org/2000/svg"><rect x=".967" y="-2.658" width="113.672" height="372.975" rx="56.836" transform="scale(1 -1) rotate(25 1105.95 273.988)" fill="#0047FF" stroke="#000" stroke-width="4"/><mask id="a" fill="#fff"><path d="M350.323 165.554a137.518 137.518 0 0 1 106.511 71.16 137.512 137.512 0 0 1-41.567 177.945 137.508 137.508 0 0 1-181.586-20.463l74.946-67.315a36.772 36.772 0 0 0 32.123 11.889 36.772 36.772 0 0 0 27.985-19.749 36.772 36.772 0 0 0-12.327-47.283 36.765 36.765 0 0 0-16.591-5.995l10.506-100.189Z"/></mask><path d="M350.323 165.554a137.518 137.518 0 0 1 106.511 71.16 137.512 137.512 0 0 1-41.567 177.945 137.508 137.508 0 0 1-181.586-20.463l74.946-67.315a36.772 36.772 0 0 0 32.123 11.889 36.772 36.772 0 0 0 27.985-19.749 36.772 36.772 0 0 0-12.327-47.283 36.765 36.765 0 0 0-16.591-5.995l10.506-100.189Z" fill="#FAFF00" stroke="#000" stroke-width="8" mask="url(#a)"/><rect x="2.658" y="-.967" width="113.672" height="383.302" rx="56.836" transform="scale(1 -1) rotate(-25 -822.27 -588.785)" fill="#00C2FF" stroke="#000" stroke-width="4"/><rect x="2.658" y="-.967" width="113.672" height="383.302" rx="56.836" transform="scale(1 -1) rotate(-25 -872.866 -225.827)" fill="#00C2FF" stroke="#000" stroke-width="4"/></svg>