<svg xmlns="http://www.w3.org/2000/svg" width="80" height="80" fill="none"><path fill="#86DA2F" d="M72.638 44.664c3.366-.258 6.084 1.942 6.343 5.308.26 3.495-2.2 6.343-5.566 6.602-3.236.259-6.084-2.2-6.343-5.437-.259-3.495 2.071-6.084 5.566-6.473Z"/><path fill="#24C2FF" d="M31.733 72.237c0-3.366 2.589-5.955 5.695-5.955 3.107 0 6.085 2.848 6.085 6.085 0 3.106-2.59 5.825-5.567 5.954-3.754 0-6.213-2.33-6.213-6.084Z"/><path fill="#FFCB12" d="M40.923 34.438c-.517.259-.776-.13-.906-.518-4.79-8.932-3.365-20.194 5.049-26.925 2.2-1.812 6.343-2.2 8.155-.388.777.647.906 1.424 1.036 2.33.259 1.942.647 3.883 1.941 5.437 1.424 1.682 3.237 2.33 5.308 2.2 1.812 0 3.624-.259 4.79 1.813.647 1.165.388 5.695-.648 6.601-.518.389-.906.13-1.294 0-2.978-1.165-6.084-1.165-9.191-.647-1.036.13-1.554-.13-1.554-1.294-.129-1.942-.517-3.754-1.553-5.437-1.942-3.495-5.566-3.625-7.896-.389-1.942 2.59-2.46 5.696-2.978 8.803-.517 2.718-.388 5.566-.259 8.414Z"/><path fill="#86DA2F" d="M44.16 36.38c-.26-.389-.13-.777.259-1.036 7.378-6.731 18.381-8.026 26.925-1.424 2.2 1.813 3.624 5.567 2.46 7.767-.518.906-1.166 1.295-1.942 1.554-1.813.776-3.495 1.553-4.66 3.236-1.165 1.683-1.424 3.624-.907 5.696.389 1.682 1.036 3.495-.647 5.048-.906.906-5.307 1.683-6.472.906-.518-.388-.389-.777-.26-1.294.39-3.236-.387-6.214-1.552-9.062-.389-1.035-.26-1.553.776-1.812 1.812-.518 3.495-1.424 4.79-2.718 2.848-2.719 2.2-6.214-1.554-7.767-2.977-1.295-6.084-1.036-9.061-.777-2.848.13-5.566.906-8.155 1.683Z"/><path fill="#24C2FF" d="M42.477 39.745c.388-.388.647-.258 1.036 0 8.543 5.178 12.944 15.405 9.06 25.372-1.035 2.59-4.4 5.178-6.86 4.531-1.035-.259-1.553-.777-2.071-1.424-1.165-1.553-2.46-2.977-4.401-3.624-2.072-.648-3.884-.26-5.696.776-1.553.906-3.107 2.071-5.049.906-1.165-.647-3.106-4.66-2.718-5.954.259-.518.777-.518 1.295-.518 3.236-.518 5.825-2.071 8.284-4.142.777-.648 1.424-.648 2.071.258 1.036 1.554 2.33 2.848 4.013 3.755 3.366 1.941 6.602.258 6.99-3.625.389-3.236-.776-6.084-1.812-8.932-1.165-2.589-2.589-5.048-4.142-7.379Z"/><path fill="#0069DA" d="M38.335 40.522c-.518 2.59-1.683 5.049-3.237 7.25-4.66 6.99-11.391 9.837-19.676 9.06-2.977-.258-5.437-2.718-5.695-5.177-.13-1.036.129-1.813.776-2.59.906-1.164 1.683-2.2 2.071-3.624.777-2.848-.258-5.178-2.33-7.249-2.848-2.848-2.46-5.437.906-7.508.389-.259.907-.518 1.424-.777.777-.388 1.424-.388 1.683.518 1.165 2.978 3.495 5.178 6.084 6.99.906.777.906 1.295.13 2.201-1.554 1.683-2.46 3.754-2.59 6.084-.258 2.848 1.425 4.66 4.273 4.66 1.812 0 3.495-.647 5.048-1.424 4.013-2.07 7.12-5.048 10.097-8.155.388-.13.518-.388 1.036-.259Z"/><path fill="#FF4649" d="M17.105 13.338c.259 0 .906.13 1.553.259 4.79.906 7.767-.777 9.32-5.307 1.036-2.978 3.237-3.884 6.085-2.33.13 0 .13.129.259.129 2.977 1.683 2.977 1.942 1.165 4.53-1.554 2.072-2.33 4.402-2.719 6.861-.259 1.424-.776 1.683-2.07 1.165-2.072-.776-4.273-.776-6.473 0-2.46.777-3.495 2.978-2.719 5.437 1.036 3.236 3.884 4.66 6.343 6.343 2.46 1.683 5.308 2.59 8.026 3.754.388.13 1.036.13.906.777-.13.388-.647.388-1.165.388-5.825.26-11.391-.647-15.922-4.53-4.272-3.495-7.378-7.767-6.86-13.722.388-1.942 1.812-3.366 4.271-3.754Z"/><path fill="#0069DA" d="M6.49 49.713c-3.106.388-6.213-2.2-6.472-5.437-.259-3.107 2.33-6.213 5.307-6.472 3.366-.389 6.473 1.941 6.732 5.048.129 2.978-1.813 6.602-5.567 6.861Z"/><path fill="#FFCB12" d="M60.859 3.63c3.236-.26 6.342 2.33 6.601 5.566.26 3.107-2.33 6.084-5.436 6.343-3.366.259-6.343-2.2-6.602-5.437-.26-3.236 2.07-6.214 5.437-6.473Z"/><path fill="#FF4649" d="M27.073 6.089c.388 3.366-1.942 6.213-5.437 6.731-2.978.389-6.084-2.07-6.473-4.919-.388-3.754 1.683-6.472 5.178-6.86 3.236-.389 6.343 2.07 6.732 5.048Z"/></svg>