<svg width="80" height="80" fill="none" xmlns="http://www.w3.org/2000/svg"><path d="M46.379 42.252c-1.325.019.25.683 1.98.95.45-.352.883-.725 1.297-1.118-1.077.263-2.173.27-3.277.169Zm7.11-1.773c.788-1.088 1.363-2.28 1.566-3.514-.178.88-.654 1.638-1.103 2.439-2.476 1.56-.233-.927-.002-1.871-2.662 3.352-.366 2.01-.462 2.947Zm2.623-6.831c.16-2.386-.47-1.632-.681-.721.247.128.442 1.682.681.721ZM41.356 1.032c.707.127 1.527.224 1.413.393.773-.17.948-.326-1.413-.393Zm1.413.393-.5.103.465-.041.035-.062Z" fill="#A80030"/><path d="M64.81 34.553c.08 2.143-.626 3.183-1.262 5.023l-1.145.573c-.937 1.82.09 1.155-.58 2.603-1.462 1.3-4.438 4.07-5.39 4.323-.695-.015.47-.82.623-1.136-1.957 1.345-1.57 2.019-4.564 2.836l-.088-.194c-7.384 3.475-17.642-3.413-17.507-12.81-.079.596-.224.447-.387.688-.382-4.835 2.232-9.692 6.639-11.675 4.31-2.135 9.364-1.258 12.451 1.62-1.696-2.222-5.072-4.578-9.073-4.358-3.919.062-7.585 2.554-8.809 5.259-2.008 1.265-2.24 4.875-3.115 5.536-1.177 8.655 2.214 12.394 7.95 16.793.904.61.255.702.377 1.165-1.906-.893-3.651-2.24-5.086-3.891.761 1.115 1.583 2.199 2.645 3.05-1.797-.609-4.198-4.356-4.899-4.509 3.098 5.55 12.57 9.732 17.528 7.657-2.294.085-5.21.047-7.788-.906-1.083-.558-2.555-1.713-2.292-1.929 6.768 2.53 13.759 1.916 19.615-2.78 1.49-1.161 3.118-3.136 3.588-3.163-.709 1.065.12.512-.423 1.453 1.484-2.395-.645-.975 1.534-4.136l.805 1.109c-.3-1.988 2.468-4.402 2.187-7.547.635-.961.708 1.035.035 3.247.934-2.454.246-2.849.486-4.874.26.681.6 1.404.775 2.123-.609-2.372.625-3.994.93-5.373-.3-.133-.94 1.05-1.086-1.752.022-1.217.339-.638.461-.938-.239-.137-.865-1.07-1.246-2.859.276-.42.738 1.09 1.114 1.152-.242-1.422-.658-2.507-.675-3.599-1.098-2.296-.389.306-1.28-.985-1.169-3.648.97-.847 1.115-2.505 1.772 2.569 2.782 6.55 3.246 8.198-.354-2.01-.926-3.958-1.624-5.842.538.227-.867-4.136.7-1.246-1.674-6.16-7.161-11.915-12.21-14.615.618.565 1.398 1.276 1.118 1.387-2.51-1.495-2.069-1.612-2.429-2.244-2.045-.833-2.18.067-3.534.002-3.855-2.046-4.598-1.829-8.146-3.11l.162.754c-2.554-.85-2.976.323-5.736.003-.168-.131.884-.475 1.75-.6-2.469.325-2.353-.488-4.77.09.596-.419 1.226-.696 1.861-1.05-2.014.121-4.807 1.172-3.945.217-3.284 1.466-9.118 3.524-12.391 6.594l-.104-.688c-1.5 1.802-6.54 5.38-6.942 7.714l-.401.094c-.78 1.322-1.285 2.82-1.904 4.18-1.021 1.741-1.497.67-1.352.943-2.007 4.073-3.005 7.495-3.867 10.302.615.918.015 5.527.248 9.216-1.009 18.217 12.78 35.905 27.85 39.99 2.21.79 5.495.76 8.289.84-3.297-.943-3.723-.5-6.934-1.62-2.317-1.091-2.825-2.337-4.466-3.762l.65 1.148c-3.219-1.14-1.872-1.41-4.49-2.24l.694-.906c-1.043-.079-2.763-1.759-3.233-2.688l-1.141.045c-1.371-1.693-2.102-2.913-2.049-3.857l-.368.657c-.418-.718-5.044-6.347-2.644-5.037-.446-.407-1.039-.663-1.681-1.832l.488-.559c-1.155-1.486-2.125-3.392-2.052-4.027.616.833 1.044.988 1.467 1.131-2.917-7.24-3.08-.399-5.29-7.37l.468-.038c-.358-.54-.576-1.126-.864-1.7l.204-2.029c-2.1-2.429-.588-10.328-.285-14.66.21-1.762 1.753-3.638 2.926-6.579l-.715-.123c1.367-2.384 7.803-9.577 10.784-9.207 1.444-1.815-.287-.007-.57-.464 3.172-3.284 4.17-2.32 6.31-2.91 2.309-1.371-1.981.534-.887-.524 3.991-1.02 2.829-2.318 8.035-2.836.549.313-1.274.483-1.732.889 3.325-1.628 10.522-1.257 15.196.903 5.425 2.537 11.519 10.033 11.76 17.087l.273.073c-.14 2.804.428 6.046-.555 9.025l.67-1.41" fill="#A80030"/><path d="m31.922 44.072-.186.929c.87 1.183 1.561 2.464 2.672 3.39-.8-1.563-1.393-2.208-2.486-4.32Zm2.058-.081c-.461-.51-.734-1.123-1.039-1.735.292 1.075.89 1.998 1.446 2.937l-.407-1.202Zm36.415-7.919-.195.488a23.57 23.57 0 0 1-2.308 7.37 23.156 23.156 0 0 0 2.503-7.858ZM41.618.396C42.513.068 43.82.216 44.77 0c-1.239.104-2.471.166-3.688.323l.536.073Zm-31.44 16.726c.206 1.912-1.438 2.654.363 1.393.966-2.176-.377-.6-.364-1.393ZM8.06 25.968c.415-1.274.49-2.04.65-2.777-1.148 1.467-.529 1.78-.65 2.777Z" fill="#A80030"/></svg>